HIERARCHY
ROOT Hips
{
	OFFSET 0.000000 0.000000 0.000000
	CHANNELS 6 Xposition Yposition Zposition Xrotation Yrotation Zrotation
	JOINT LeftUpLeg_virtual
	{
		OFFSET 0.000000 0.000000 0.000000
		CHANNELS 3 Xrotation Yrotation Zrotation
		JOINT LeftUpLeg
		{
			OFFSET 10.205400 -3.823500 0.155100
			CHANNELS 3 Xrotation Yrotation Zrotation
			JOINT LeftLeg
			{
				OFFSET 0.708757 -12.982077 0.567790
				CHANNELS 3 Xrotation Yrotation Zrotation
				JOINT LeftFoot
				{
					OFFSET -0.708756 -10.717838 -2.184338
					CHANNELS 3 Xrotation Yrotation Zrotation
					JOINT LeftToeBase
					{
						OFFSET 0.108149 -7.191104 7.560241
						CHANNELS 3 Xrotation Yrotation Zrotation
						JOINT LeftToe_End
						{
							OFFSET 0.070230 0.081724 4.490308
							CHANNELS 3 Xrotation Yrotation Zrotation
							End Site
							{
								OFFSET 0 0 0
							}
						}
					}
				}
			}
		}
	}
	JOINT RightUpLeg_virtual
	{
		OFFSET 0.000000 0.000000 0.000000
		CHANNELS 3 Xrotation Yrotation Zrotation
		JOINT RightUpLeg
		{
			OFFSET -10.205400 -3.823500 0.005500
			CHANNELS 3 Xrotation Yrotation Zrotation
			JOINT RightLeg
			{
				OFFSET -0.708756 -12.982134 0.610632
				CHANNELS 3 Xrotation Yrotation Zrotation
				JOINT RightFoot
				{
					OFFSET 0.708754 -10.717769 -1.945823
					CHANNELS 3 Xrotation Yrotation Zrotation
					JOINT RightToeBase
					{
						OFFSET -0.108140 -7.191069 7.372968
						CHANNELS 3 Xrotation Yrotation Zrotation
						JOINT RightToe_End
						{
							OFFSET -0.070227 0.081735 4.479403
							CHANNELS 3 Xrotation Yrotation Zrotation
							End Site
							{
								OFFSET 0 0 0
							}
						}
					}
				}
			}
		}
	}
	JOINT Spine_virtual
	{
		OFFSET 0.000000 0.000000 0.000000
		CHANNELS 3 Xrotation Yrotation Zrotation
		JOINT Spine
		{
			OFFSET 0.000000 6.876099 0.125700
			CHANNELS 3 Xrotation Yrotation Zrotation
			JOINT Spine1
			{
				OFFSET 0.000000 5.730043 0.104720
				CHANNELS 3 Xrotation Yrotation Zrotation
				JOINT Spine1_split
				{
					OFFSET 0.000000 5.730043 0.104720
					CHANNELS 3 Xrotation Yrotation Zrotation
					JOINT Spine2
					{
						OFFSET 0.000000 5.730043 0.104720
						CHANNELS 3 Xrotation Yrotation Zrotation
						JOINT Neck_virtual
						{
							OFFSET 0.000000 0.000000 0.000000
							CHANNELS 3 Xrotation Yrotation Zrotation
							JOINT Neck
							{
								OFFSET 0.000000 10.314075 0.188496
								CHANNELS 3 Xrotation Yrotation Zrotation
								JOINT Head
								{
									OFFSET 0.000000 7.643700 -2.377400
									CHANNELS 3 Xrotation Yrotation Zrotation
									JOINT HeadTop_End
									{
										OFFSET 0.000000 43.788605 -13.619600
										CHANNELS 3 Xrotation Yrotation Zrotation
										End Site
										{
											OFFSET 0 0 0
										}
									}
								}
							}
						}
						JOINT LeftShoulder_virtual
						{
							OFFSET 0.000000 0.000000 0.000000
							CHANNELS 3 Xrotation Yrotation Zrotation
							JOINT LeftShoulder
							{
								OFFSET 2.196100 4.412489 0.087492
								CHANNELS 3 Xrotation Yrotation Zrotation
								JOINT LeftShoulder_split
								{
									OFFSET 2.196100 4.412489 0.087492
									CHANNELS 3 Xrotation Yrotation Zrotation
									JOINT LeftArm
									{
										OFFSET 8.771219 -2.981674 -0.026999
										CHANNELS 3 Xrotation Yrotation Zrotation
										JOINT LeftForeArm
										{
											OFFSET 8.512804 0.000000 -0.000000
											CHANNELS 3 Xrotation Yrotation Zrotation
											JOINT LeftHand
											{
												OFFSET 18.484802 0.000000 -0.000000
												CHANNELS 3 Xrotation Yrotation Zrotation
												End Site
												{
													OFFSET 0 0 0
												}
											}
										}
									}
								}
							}
						}
						JOINT RightShoulder_virtual
						{
							OFFSET 0.000000 0.000000 0.000000
							CHANNELS 3 Xrotation Yrotation Zrotation
							JOINT RightShoulder
							{
								OFFSET -2.196100 4.412496 0.070690
								CHANNELS 3 Xrotation Yrotation Zrotation
								JOINT RightShoulder_split
								{
									OFFSET -2.196100 4.412496 0.070690
									CHANNELS 3 Xrotation Yrotation Zrotation
									JOINT RightArm
									{
										OFFSET -8.771282 -2.981682 -0.094208
										CHANNELS 3 Xrotation Yrotation Zrotation
										JOINT RightForeArm
										{
											OFFSET -8.494598 0.000000 0.000000
											CHANNELS 3 Xrotation Yrotation Zrotation
											JOINT RightHand
											{
												OFFSET -18.483803 0.000000 0.000001
												CHANNELS 3 Xrotation Yrotation Zrotation
												End Site
												{
													OFFSET 0 0 0
												}
											}
										}
									}
								}
							}
						}
					}
				}
			}
		}
	}
}
MOTION
Frames: 4
Frame Time: 0.03333333
2.326272 17.205389 -0.463301 0.000000 0.000000 0.000000 1.073384 -36.931987 6.946884 -73.005324 -21.070620 54.208008 76.401157 9.176953 -6.710935 38.007978 0.605812 -7.981916 -3.571214 0.197686 -2.505585 0.000000 0.000000 0.000000 -3.815893 -31.565460 6.768651 -19.468092 4.753533 -25.955964 119.687782 5.543932 -2.660443 40.591118 6.204297 12.408250 53.687169 -1.427522 -9.154404 0.000000 0.000000 0.000000 -1.632044 -37.729989 7.017011 3.500520 -6.065812 -4.657946 2.178301 -4.139306 -2.315695 0.602274 0.569373 -0.007984 0.000000 0.000000 0.000000 1.433873 -4.450416 -2.121819 0.408178 1.052552 2.529117 1.915344 14.595704 5.698466 0.000000 0.000000 0.000000 1.383619 -4.150694 -2.332334 1.533961 0.335920 -2.034461 -4.532122 1.432166 -0.754503 -0.919302 -15.105245 -49.140028 175.403657 -86.708835 176.214154 0.000000 0.000000 0.000000 2.829922 -4.243236 -2.370570 5.718721 18.058726 3.202863 -1.605470 5.112092 -0.732955 -31.684158 -14.171562 46.273289 179.192854 82.474179 -179.616859 0.000000 0.000000 0.000000 
2.296583 17.194389 -0.460253 0.000000 0.000000 0.000000 1.172870 -36.935846 7.026899 -72.830772 -20.983238 54.447990 76.348811 9.212856 -6.980987 37.988662 0.657072 -7.823516 -3.732046 0.208193 -2.549319 0.000000 0.000000 0.000000 -3.725849 -31.603456 6.846314 -19.704819 4.760117 -25.923402 119.700814 5.534472 -2.641422 40.659061 6.137468 12.269807 54.120592 -1.415735 -8.904078 0.000000 0.000000 0.000000 -1.515268 -37.677031 7.067725 3.450039 -5.972543 -4.884702 2.218644 -4.070056 -2.495914 0.610041 0.555771 0.004251 0.000000 0.000000 0.000000 1.448343 -4.399552 -2.271729 0.276747 0.905826 3.003390 1.798436 14.674296 6.015274 0.000000 0.000000 0.000000 1.385251 -4.071362 -2.497792 1.502471 0.542256 -1.297673 -4.675655 1.289439 -0.920294 -0.857653 -15.174776 -49.464452 177.413180 -86.725289 178.292116 0.000000 0.000000 0.000000 2.821438 -4.180804 -2.565509 5.681441 18.197337 3.729121 -1.696789 5.168301 -0.668782 -30.586786 -13.030452 43.858602 179.541317 78.419738 -179.922332 0.000000 0.000000 0.000000 
2.260925 17.185127 -0.453838 0.000000 0.000000 0.000000 1.259121 -36.925929 7.080003 -72.684619 -20.901706 54.710843 76.310903 9.253010 -7.239813 37.967427 0.614810 -7.705977 -3.846155 0.222946 -2.587207 0.000000 0.000000 0.000000 -3.639387 -31.602059 6.891481 -19.805482 4.729100 -25.844773 119.602486 5.543432 -2.656315 40.722411 6.128599 12.210459 54.477551 -1.397855 -8.661944 0.000000 0.000000 0.000000 -1.423136 -37.571382 7.091248 3.383294 -5.864139 -5.104443 2.264298 -4.008626 -2.667201 0.606379 0.525771 0.017193 0.000000 0.000000 0.000000 1.477991 -4.345359 -2.414149 0.102927 0.732752 3.503519 1.707424 14.712212 6.294958 0.000000 0.000000 0.000000 1.386062 -3.991465 -2.655338 1.451771 0.811030 -0.718103 -4.700918 1.122945 -1.016507 -0.820805 -15.315045 -49.643341 178.997688 -86.694942 179.944858 0.000000 0.000000 0.000000 2.820885 -4.117121 -2.750902 5.623623 18.313725 4.372446 -1.788937 5.169669 -0.563978 -29.832374 -12.137784 41.746994 179.715937 74.731108 179.959092 0.000000 0.000000 0.000000 
2.218386 17.180756 -0.448214 0.000000 0.000000 0.000000 1.318118 -36.898458 7.084152 -72.560050 -20.823409 54.991683 76.275045 9.320573 -7.486392 37.928966 0.519515 -7.578504 -3.920155 0.237304 -2.618121 0.000000 0.000000 0.000000 -3.573529 -31.560644 6.883524 -19.721543 4.632341 -25.701881 119.392772 5.547332 -2.688934 40.715297 6.153759 12.217671 54.689663 -1.378804 -8.462002 0.000000 0.000000 0.000000 -1.360276 -37.424188 7.079458 3.306624 -5.744557 -5.309832 2.320892 -3.948784 -2.825328 0.601419 0.498789 0.035363 0.000000 0.000000 0.000000 1.527933 -4.287379 -2.545849 -0.098148 0.548684 4.029836 1.685976 14.756286 6.491139 0.000000 0.000000 0.000000 1.406397 -3.911631 -2.796895 1.387041 1.107430 -0.249706 -4.610059 0.930776 -1.003231 -0.788665 -15.518174 -49.714365 -179.693644 -86.615630 -178.679019 0.000000 0.000000 0.000000 2.849943 -4.051572 -2.920985 5.539896 18.444608 5.154348 -1.843442 5.085107 -0.456715 -29.103955 -11.253081 39.848707 179.846722 71.517313 179.896418 0.000000 0.000000 0.000000 
